<?xml version="1.0" encoding="iso-8859-1"?>
<!-- Generator: Adobe Illustrator 19.0.0, SVG Export Plug-In . SVG Version: 6.00 Build 0)  -->
<svg xmlns="http://www.w3.org/2000/svg" xmlns:xlink="http://www.w3.org/1999/xlink" version="1.1" id="Capa_1" x="0px" y="0px" viewBox="0 0 512 512" style="enable-background:new 0 0 512 512;" xml:space="preserve" width="512px" height="512px">
<g>
	<g>
		<path d="M503.467,102.4H8.533c-4.71,0-8.533,3.814-8.533,8.533v364.8C0,495.736,16.273,512,36.267,512h439.467    C495.727,512,512,495.736,512,475.733v-364.8C512,106.214,508.177,102.4,503.467,102.4z M494.933,475.733    c0,10.581-8.61,19.2-19.2,19.2H36.267c-10.59,0-19.2-8.619-19.2-19.2V119.467h477.867V475.733z" fill="#16a085"/>
	</g>
</g>
<g>
	<g>
		<path d="M475.733,34.133H36.267C16.273,34.133,0,50.398,0,70.4v40.533c0,4.719,3.823,8.533,8.533,8.533h494.933    c4.71,0,8.533-3.814,8.533-8.533V70.4C512,50.398,495.727,34.133,475.733,34.133z M494.933,102.4H17.067v-32    c0-10.581,8.61-19.2,19.2-19.2h439.467c10.59,0,19.2,8.619,19.2,19.2V102.4z" fill="#16a085"/>
	</g>
</g>
<g>
	<g>
		<path d="M93.867,0C70.34,0,51.2,19.14,51.2,42.667c0,4.719,3.823,8.533,8.533,8.533s8.533-3.814,8.533-8.533    c0-14.114,11.486-25.6,25.6-25.6s25.6,11.486,25.6,25.6s-11.486,25.6-25.6,25.6c-4.71,0-8.533,3.814-8.533,8.533    s3.823,8.533,8.533,8.533c23.526,0,42.667-19.14,42.667-42.667C136.533,19.14,117.393,0,93.867,0z" fill="#16a085"/>
	</g>
</g>
<g>
	<g>
		<path d="M204.8,0c-23.526,0-42.667,19.14-42.667,42.667c0,4.719,3.823,8.533,8.533,8.533s8.533-3.814,8.533-8.533    c0-14.114,11.486-25.6,25.6-25.6s25.6,11.486,25.6,25.6s-11.486,25.6-25.6,25.6c-4.71,0-8.533,3.814-8.533,8.533    s3.823,8.533,8.533,8.533c23.526,0,42.667-19.14,42.667-42.667C247.467,19.14,228.326,0,204.8,0z" fill="#16a085"/>
	</g>
</g>
<g>
	<g>
		<path d="M315.733,0c-23.526,0-42.667,19.14-42.667,42.667c0,4.719,3.823,8.533,8.533,8.533s8.533-3.814,8.533-8.533    c0-14.114,11.486-25.6,25.6-25.6s25.6,11.486,25.6,25.6s-11.486,25.6-25.6,25.6c-4.71,0-8.533,3.814-8.533,8.533    s3.823,8.533,8.533,8.533c23.526,0,42.667-19.14,42.667-42.667C358.4,19.14,339.26,0,315.733,0z" fill="#16a085"/>
	</g>
</g>
<g>
	<g>
		<path d="M418.133,0c-23.526,0-42.667,19.14-42.667,42.667c0,4.719,3.823,8.533,8.533,8.533s8.533-3.814,8.533-8.533    c0-14.114,11.486-25.6,25.6-25.6s25.6,11.486,25.6,25.6s-11.486,25.6-25.6,25.6c-4.71,0-8.533,3.814-8.533,8.533    s3.823,8.533,8.533,8.533c23.526,0,42.667-19.14,42.667-42.667C460.8,19.14,441.66,0,418.133,0z" fill="#16a085"/>
	</g>
</g>
<g>
	<g>
		<path d="M238.933,153.6h-68.267c-4.71,0-8.533,3.814-8.533,8.533V230.4c0,4.719,3.823,8.533,8.533,8.533h68.267    c4.71,0,8.533-3.814,8.533-8.533v-68.267C247.467,157.414,243.644,153.6,238.933,153.6z M230.4,221.867h-51.2v-51.2h51.2V221.867z    " fill="#16a085"/>
	</g>
</g>
<g>
	<g>
		<path d="M349.867,153.6H281.6c-4.71,0-8.533,3.814-8.533,8.533V230.4c0,4.719,3.823,8.533,8.533,8.533h68.267    c4.71,0,8.533-3.814,8.533-8.533v-68.267C358.4,157.414,354.577,153.6,349.867,153.6z M341.333,221.867h-51.2v-51.2h51.2V221.867z    " fill="#16a085"/>
	</g>
</g>
<g>
	<g>
		<path d="M460.8,153.6h-68.267c-4.71,0-8.533,3.814-8.533,8.533V230.4c0,4.719,3.823,8.533,8.533,8.533H460.8    c4.71,0,8.533-3.814,8.533-8.533v-68.267C469.333,157.414,465.51,153.6,460.8,153.6z M452.267,221.867h-51.2v-51.2h51.2V221.867z" fill="#16a085"/>
	</g>
</g>
<g>
	<g>
		<path d="M128,264.533H59.733c-4.71,0-8.533,3.814-8.533,8.533v68.267c0,4.719,3.823,8.533,8.533,8.533H128    c4.71,0,8.533-3.814,8.533-8.533v-68.267C136.533,268.348,132.71,264.533,128,264.533z M119.467,332.8h-51.2v-51.2h51.2V332.8z" fill="#16a085"/>
	</g>
</g>
<g>
	<g>
		<path d="M238.933,264.533h-68.267c-4.71,0-8.533,3.814-8.533,8.533v68.267c0,4.719,3.823,8.533,8.533,8.533h68.267    c4.71,0,8.533-3.814,8.533-8.533v-68.267C247.467,268.348,243.644,264.533,238.933,264.533z M230.4,332.8h-51.2v-51.2h51.2V332.8z    " fill="#16a085"/>
	</g>
</g>
<g>
	<g>
		<path d="M460.8,264.533h-68.267c-4.71,0-8.533,3.814-8.533,8.533v68.267c0,4.719,3.823,8.533,8.533,8.533H460.8    c4.71,0,8.533-3.814,8.533-8.533v-68.267C469.333,268.348,465.51,264.533,460.8,264.533z M452.267,332.8h-51.2v-51.2h51.2V332.8z" fill="#16a085"/>
	</g>
</g>
<g>
	<g>
		<path d="M128,375.467H59.733c-4.71,0-8.533,3.814-8.533,8.533v68.267c0,4.719,3.823,8.533,8.533,8.533H128    c4.71,0,8.533-3.814,8.533-8.533V384C136.533,379.281,132.71,375.467,128,375.467z M119.467,443.733h-51.2v-51.2h51.2V443.733z" fill="#16a085"/>
	</g>
</g>
<g>
	<g>
		<path d="M349.867,375.467H281.6c-4.71,0-8.533,3.814-8.533,8.533v68.267c0,4.719,3.823,8.533,8.533,8.533h68.267    c4.71,0,8.533-3.814,8.533-8.533V384C358.4,379.281,354.577,375.467,349.867,375.467z M341.333,443.733h-51.2v-51.2h51.2V443.733z    " fill="#16a085"/>
	</g>
</g>
<g>
	<g>
		<path d="M460.8,375.467h-68.267c-4.71,0-8.533,3.814-8.533,8.533v68.267c0,4.719,3.823,8.533,8.533,8.533H460.8    c4.71,0,8.533-3.814,8.533-8.533V384C469.333,379.281,465.51,375.467,460.8,375.467z M452.267,443.733h-51.2v-51.2h51.2V443.733z" fill="#16a085"/>
	</g>
</g>
<g>
	<g>
		<path d="M134.033,156.1c-3.337-3.337-8.73-3.337-12.066,0L53.7,224.367c-3.336,3.337-3.336,8.73,0,12.066    c1.664,1.664,3.849,2.5,6.033,2.5s4.369-0.836,6.033-2.5l68.267-68.267C137.37,164.83,137.37,159.437,134.033,156.1z" fill="#16a085"/>
	</g>
</g>
<g>
	<g>
		<path d="M134.033,224.367L65.766,156.1c-3.337-3.337-8.73-3.337-12.066,0c-3.336,3.337-3.336,8.73,0,12.066l68.267,68.267    c1.664,1.664,3.849,2.5,6.033,2.5s4.369-0.836,6.033-2.5C137.37,233.097,137.37,227.703,134.033,224.367z" fill="#16a085"/>
	</g>
</g>
<g>
	<g>
		<path d="M244.966,377.967c-3.337-3.336-8.73-3.336-12.066,0l-68.267,68.267c-3.337,3.337-3.337,8.73,0,12.066    c1.664,1.664,3.849,2.5,6.033,2.5c2.185,0,4.369-0.836,6.033-2.5l68.267-68.267C248.303,386.697,248.303,381.303,244.966,377.967z    " fill="#16a085"/>
	</g>
</g>
<g>
	<g>
		<path d="M244.966,446.234L176.7,377.967c-3.336-3.336-8.73-3.337-12.066,0c-3.337,3.337-3.337,8.73,0,12.066L232.9,458.3    c1.664,1.664,3.849,2.5,6.033,2.5c2.185,0,4.369-0.836,6.033-2.5C248.303,454.963,248.303,449.57,244.966,446.234z" fill="#16a085"/>
	</g>
</g>
<g>
	<g>
		<path d="M355.9,267.034c-3.337-3.337-8.73-3.337-12.066,0L275.567,335.3c-3.337,3.337-3.337,8.73,0,12.066    c1.664,1.664,3.849,2.5,6.033,2.5c2.185,0,4.369-0.836,6.033-2.5L355.9,279.1C359.236,275.763,359.236,270.37,355.9,267.034z" fill="#16a085"/>
	</g>
</g>
<g>
	<g>
		<path d="M355.9,335.3l-68.267-68.267c-3.337-3.337-8.73-3.337-12.066,0c-3.337,3.336-3.337,8.73,0,12.066l68.267,68.267    c1.664,1.664,3.849,2.5,6.033,2.5c2.185,0,4.369-0.836,6.033-2.5C359.236,344.03,359.236,338.637,355.9,335.3z" fill="#16a085"/>
	</g>
</g>
<g>
</g>
<g>
</g>
<g>
</g>
<g>
</g>
<g>
</g>
<g>
</g>
<g>
</g>
<g>
</g>
<g>
</g>
<g>
</g>
<g>
</g>
<g>
</g>
<g>
</g>
<g>
</g>
<g>
</g>
</svg>
